Coordinates
version=1
nRows=13
nColumns=36
inDegrees=yes

Units are S.I. units (second, meters, Newtons, ...)
If the header above contains a line with 'inDegrees', this indicates whether rotational values are in degrees (yes) or radians (no).

endheader
time	pelvis_tilt	pelvis_list	pelvis_rotation	pelvis_tx	pelvis_ty	pelvis_tz	hip_flexion_r	hip_adduction_r	hip_rotation_r	knee_angle_r	knee_angle_r_beta	ankle_angle_r	subtalar_angle_r	mtp_angle_r	hip_flexion_l	hip_adduction_l	hip_rotation_l	knee_angle_l	knee_angle_l_beta	ankle_angle_l	subtalar_angle_l	mtp_angle_l	lumbar_extension	lumbar_bending	lumbar_rotation	arm_flex_r	arm_add_r	arm_rot_r	elbow_flex_r	pro_sup_r	arm_flex_l	arm_add_l	arm_rot_l	elbow_flex_l	pro_sup_l
      0.99000000	     -2.65052770	     -0.60435012	      1.22435886	      1.12257828	      0.94669353	     -0.21971801	     27.83894636	      2.48664075	     -6.78573660	      6.29949791	      0.10994698	     -0.55435836	     -7.36352626	     -7.27796909	    -10.72203029	      2.18309976	     -9.85410087	      2.33336033	      0.04072482	     17.41906393	      4.41609541	     -7.27796909	     -0.37297955	     -2.08712633	    -14.27627971	     -8.42240207	     -3.31272065	    -12.27536989	     20.50897944	     99.77251620	     16.93521571	    -12.96128702	    -18.56782908	     48.66820492	    103.81048141
      1.00000000	     -2.97128787	     -0.30680617	      1.10464475	      1.13413234	      0.94372882	     -0.21861306	     27.85388790	      2.35131713	     -6.36513592	      3.50067751	      0.06109835	     -0.19479336	     -6.49069350	     -7.28044065	    -11.08490995	      2.41383603	     -9.78913492	      2.55554128	      0.04460261	     17.68167805	      4.30737540	     -7.28044065	     -0.04688689	     -2.46189564	    -14.26636996	     -8.90895356	     -3.39171169	    -12.56551867	     20.02821886	     99.67922607	     17.68551773	    -13.22261012	    -18.22697385	     49.68107781	    103.96386612
      1.01000000	     -3.20238324	     -0.03133831	      0.98485484	      1.14567972	      0.94092631	     -0.21749550	     27.97907056	      2.17354422	     -6.26439624	      1.67102120	      0.02916482	      0.26172210	     -5.80577507	     -7.28244460	    -11.49721941	      2.60984606	     -9.74011803	      2.86768106	      0.05005048	     17.85780756	      4.17895966	     -7.28244460	      0.14167085	     -2.79130518	    -14.21835510	     -9.29823200	     -3.47707857	    -12.89032461	     19.53352880	     99.57649403	     18.42067904	    -13.43738888	    -17.87214213	     50.70279155	    104.11338524
      1.02000000	     -3.35471293	      0.18663486	      0.91713795	      1.15738941	      0.93841265	     -0.21643498	     28.30500363	      1.93245871	     -7.25290679	      1.04493691	      0.01823759	      1.81174641	     -3.45015030	     -7.29645527	    -11.94865203	      2.72533918	     -9.63894854	      3.25014003	      0.05672564	     17.96755169	      3.85875764	     -7.29645527	      0.21800041	     -3.02211715	    -14.20393726	     -9.63702568	     -3.44881599	    -14.21725253	     19.28914191	     99.12956696	     19.05178373	    -13.65511876	    -17.35680055	     51.69828663	    104.36568381
      1.03000000	     -3.55155517	      0.32484760	      0.90929262	      1.16924486	      0.93602167	     -0.21533804	     28.57940288	      1.78977871	     -7.41229910	      0.79106767	      0.01380674	      2.20293000	     -3.40390992	     -7.29758251	    -12.27493075	      2.71413802	     -9.55695850	      3.78640433	      0.06608522	     17.92637417	      3.75446905	     -7.29758251	      0.37852401	     -3.18012028	    -14.13597237	     -9.98619449	     -3.56681271	    -14.42212790	     18.85638238	     99.06368141	     19.72970140	    -13.62855786	    -17.13909569	     52.51783977	    104.46787099
      1.04000000	     -3.71182841	      0.32690766	      0.96283479	      1.18139757	      0.93391025	     -0.21418977	     28.71502093	      1.75743677	     -7.49690337	      0.90227731	      0.01574771	      2.65732937	     -3.32903995	     -7.29960930	    -12.54779156	      2.50711232	     -9.55537325	      4.51608725	      0.07882059	     17.92833312	      3.48216302	     -7.29960930	      0.49298510	     -3.17639650	    -14.21274167	    -10.16250273	     -3.67873269	    -14.82373756	     18.26855965	     98.93137913	     20.14460236	    -13.67845836	    -16.75815733	     53.43858284	    104.60103164
      1.05000000	     -3.80124745	      0.17731064	      1.08855361	      1.19400818	      0.93218761	     -0.21302392	     28.64999902	      1.85137198	     -7.40020863	      1.28233474	      0.02238096	      2.65218409	     -3.42696116	     -7.30038571	    -12.97031503	      2.11459205	     -9.39551560	      5.13534467	      0.08962867	     17.74196300	      3.44487112	     -7.30038571	      0.63715956	     -2.98854314	    -14.32629816	    -10.41207254	     -3.85030460	    -15.02555843	     17.90288907	     98.86135551	     20.48429736	    -13.55727706	    -16.56678527	     54.01702952	    104.67601302
      1.06000000	     -3.85598707	     -0.07585353	      1.29133948	      1.20678236	      0.93076342	     -0.21180078	     28.55190951	      2.02365389	     -7.56070038	      1.98938003	      0.03472123	      2.33718633	     -4.11156263	     -7.30215506	    -13.23733148	      1.54123284	     -9.50682392	      6.10919408	      0.10662555	     17.51035472	      3.20619378	     -7.30215506	      0.64320077	     -2.68674784	    -14.44041698	    -10.49942158	     -3.96443369	    -15.45219016	     17.24359860	     98.70222202	     20.69341203	    -13.43502685	    -16.22694297	     54.99828389	    104.80882676
      1.07000000	     -4.02208922	     -0.37058413	      1.43817946	      1.21983979	      0.92944039	     -0.21029428	     28.48772854	      2.33071289	     -6.77053601	      2.74100461	      0.04783956	      0.53170686	     -6.76941271	     -7.31247893	    -13.37335381	      0.90082769	     -9.77020392	      7.11902253	      0.12425038	     17.35369867	      3.34543240	     -7.31247893	      0.89985834	     -2.34017597	    -14.76734242	    -10.45295087	     -4.04485130	    -16.39747121	     16.78234123	     98.13894741	     20.38171685	    -13.31479404	    -16.38222261	     56.14067703	    104.96057889
      1.08000000	     -3.98223848	     -0.81421936	      1.61097805	      1.23321561	      0.92874245	     -0.20875715	     28.27245237	      2.72375512	     -7.00727734	      3.79554812	      0.06624481	     -0.28315036	     -7.27726840	     -7.31396978	    -13.73780267	      0.09325838	     -9.87138990	      8.10190645	      0.14140494	     16.82216024	      3.22036580	     -7.31396978	      0.90729058	     -1.80544231	    -14.76364729	    -10.59331730	     -4.20330798	    -16.56090350	     16.40103274	     98.04619176	     20.45301823	    -12.99057538	    -16.10145204	     56.69945366	    105.04730465
      1.09000000	     -4.00402822	     -1.30785355	      1.74064399	      1.24687051	      0.92828069	     -0.20697436	     27.96230832	      3.27943063	     -6.59422251	      4.50428212	      0.07861455	     -2.89600369	    -10.11590287	     -7.32455918	    -13.89284564	     -0.81616646	    -10.27744582	      9.38074134	      0.16372482	     16.32922648	      3.30230412	     -7.32455918	      1.07013686	     -1.21654919	    -14.94553654	    -10.49710958	     -4.37261826	    -16.81104496	     15.90305937	     97.58983227	     19.98322676	    -12.70503050	    -16.17421237	     57.59854461	    105.20046226
      1.10000000	     -3.88286931	     -1.88924205	      1.93646182	      1.26080036	      0.92834806	     -0.20519987	     27.58611623	      3.82489380	     -7.22423986	      5.47160145	      0.09549746	     -4.11410815	    -10.64902370	     -7.32698982	    -14.15074967	     -1.84276871	    -10.52751012	     10.69954200	      0.18674224	     15.43756004	      3.02701842	     -7.32698982	      1.07341336	     -0.52840227	    -14.96252145	    -10.52966799	     -4.51672100	    -16.87986883	     15.56718823	     97.47666828	     19.72652402	    -12.32918731	    -15.87618143	     58.09132802	    105.29256819
      1.11000000	     -3.72374267	     -2.48797687	      2.10130525	      1.27492185	      0.92874320	     -0.20327569	     27.12481555	      4.43086302	     -7.80544054	      6.35638867	      0.11093991	     -5.47128984	    -11.51780779	     -7.32980273	    -14.33529025	     -2.90092550	    -10.67186553	     12.22518041	      0.21336965	     14.40153532	      2.64704189	     -7.32980273	      1.07114772	      0.18072467	    -15.00087676	    -10.46951584	     -4.67011105	    -16.91315347	     15.27586318	     97.34953720	     19.25081846	    -11.93789498	    -15.69804665	     58.64011908	    105.38729042
